<svg width="126" height="20" viewBox="0 0 126 20" fill="none" xmlns="http://www.w3.org/2000/svg">
<path d="M0 19.7222V0.277777H3.18488L12.409 14.4722H10.6964L19.7703 0.277777H22.9551L23.0152 19.7222H19.2895L19.2595 5.63889H20.0407L12.3489 17.5H10.6062L2.79428 5.63889H3.69566V19.7222H0Z" fill="white"/>
<path d="M42.8123 19.7222L35.6914 10.25L38.8462 8.44444L47.229 19.7222H42.8123ZM28.901 19.7222V0.277777H32.7468V19.7222H28.901ZM31.5751 11.5278V8.41667H38.6659V11.5278H31.5751ZM39.2067 10.4167L35.6313 9.97222L42.8123 0.277777H46.9586L39.2067 10.4167Z" fill="white"/>
<path d="M59.4965 20C57.894 20 56.4017 19.7593 55.0196 19.2778C53.6575 18.7778 52.4657 18.0833 51.4441 17.1944C50.4426 16.287 49.6614 15.2222 49.1006 14C48.5397 12.7778 48.2593 11.4444 48.2593 10C48.2593 8.55556 48.5397 7.22222 49.1006 6C49.6614 4.77778 50.4526 3.72222 51.4742 2.83333C52.4958 1.92593 53.6876 1.23148 55.0497 0.75C56.4117 0.25 57.904 0 59.5265 0C61.2492 0 62.8216 0.277778 64.2437 0.833334C65.6659 1.37037 66.8678 2.17593 67.8493 3.25L65.3254 5.44445C64.5642 4.68519 63.7129 4.12037 62.7715 3.75C61.83 3.36111 60.8085 3.16667 59.7068 3.16667C58.6051 3.16667 57.5936 3.33333 56.6721 3.66667C55.7708 4 54.9796 4.47222 54.2985 5.08333C53.6375 5.69444 53.1167 6.41667 52.7361 7.25C52.3756 8.08333 52.1953 9 52.1953 10C52.1953 11 52.3756 11.9167 52.7361 12.75C53.1167 13.5833 53.6375 14.3056 54.2985 14.9167C54.9796 15.5278 55.7708 16 56.6721 16.3333C57.5936 16.6667 58.6051 16.8333 59.7068 16.8333C60.8085 16.8333 61.83 16.6481 62.7715 16.2778C63.7129 15.8889 64.5642 15.3056 65.3254 14.5278L67.8493 16.75C66.8678 17.8056 65.6659 18.6111 64.2437 19.1667C62.8216 19.7222 61.2391 20 59.4965 20Z" fill="white"/>
<path d="M71.506 19.7222V0.277777H87.881V3.25H75.3518V8.02778H81.5714C84.0952 8.02778 86.0081 8.51852 87.3101 9.5C88.6322 10.463 89.2932 11.8704 89.2932 13.7222C89.2932 15.6296 88.5621 17.1111 87.0998 18.1667C85.6576 19.2037 83.6145 19.7222 80.9704 19.7222H71.506ZM75.3518 16.9444H80.7601C82.2624 16.9444 83.4042 16.6759 84.1854 16.1389C84.9666 15.6019 85.3572 14.8241 85.3572 13.8056C85.3572 11.8056 83.8248 10.8056 80.7601 10.8056H75.3518V16.9444Z" fill="white"/>
<path d="M95.0425 19.7222V9.35556L95.6014 9.88889H90.8782V8.05556H101.55V9.88889H96.8273L97.3681 9.35556V19.7222H95.0425Z" fill="white"/>
<path d="M105.735 12.9056H112.009V14.6889H105.735V12.9056ZM105.915 17.9056H113.036V19.7222H103.572V8.05556H112.784V9.87222H105.915V17.9056Z" fill="white"/>
<path d="M114.264 8.05556H116.968L119.943 11.9556L122.917 8.05556H125.657L121.421 13.6556L126 19.7222H123.224L119.943 15.4722L116.68 19.7222H113.976L118.537 13.7389L114.264 8.05556Z" fill="white"/>
</svg>
